<?xml version="1.0" encoding="UTF-8"?>
<svg width="280px" height="32px" viewBox="0 0 280 32" version="1.1" xmlns="http://www.w3.org/2000/svg" xmlns:xlink="http://www.w3.org/1999/xlink">
    <!-- Generator: Sketch 51.3 (57544) - http://www.bohemiancoding.com/sketch -->
    <title>awww-software</title>
    <desc>Created with Sketch.</desc>
    <defs>
        <path d="M116.562025,31.5352454 C114.822238,31.5352454 113.165324,31.2729005 111.591231,30.748203 C110.017138,30.2235054 108.78826,29.5607395 107.904559,28.7598854 L108.857294,27.102954 C109.740995,27.8485769 110.880124,28.4699199 112.274715,28.9670018 C113.669306,29.4640837 115.12601,29.7126209 116.644872,29.7126209 C118.826509,29.7126209 120.435097,29.3536227 121.470684,28.6356155 C122.506271,27.9176084 123.024057,26.9234595 123.024057,25.6531391 C123.024057,24.7418223 122.741001,24.0238259 122.17488,23.4991284 C121.608759,22.9744308 120.911474,22.5878174 120.083004,22.3392764 C119.254534,22.0907355 118.108502,21.8283906 116.644872,21.552234 C114.932701,21.2484618 113.551938,20.9170788 112.502543,20.5580752 C111.453148,20.1990716 110.555653,19.6191515 109.81003,18.8182973 C109.064407,18.0174432 108.691601,16.9128333 108.691601,15.5044346 C108.691601,13.7922637 109.402694,12.3769823 110.8249,11.2585481 C112.247107,10.1401138 114.269924,9.58090507 116.893411,9.58090507 C118.274194,9.58090507 119.641149,9.7742118 120.994316,10.160831 C122.347484,10.5474503 123.452094,11.0583323 124.308179,11.6934925 L123.355444,13.3504239 C122.471742,12.7152637 121.463786,12.2319969 120.331544,11.900609 C119.199302,11.569221 118.039461,11.4035296 116.851988,11.4035296 C114.836045,11.4035296 113.317206,11.7763354 112.295427,12.5219582 C111.273647,13.267581 110.762765,14.2479223 110.762765,15.4630113 C110.762765,16.4295595 111.052725,17.1820749 111.632654,17.7205803 C112.212583,18.2590857 112.923676,18.6595067 113.765953,18.9218555 C114.608231,19.1842043 115.788783,19.4672606 117.307644,19.7710328 C118.992199,20.0748051 120.35225,20.3992842 121.387838,20.74448 C122.423425,21.0896758 123.300209,21.6488845 124.018216,22.422123 C124.736223,23.1953615 125.095221,24.2585485 125.095221,25.6117158 C125.095221,27.4067338 124.34961,28.8427266 122.858364,29.9197373 C121.367119,30.9967481 119.26836,31.5352454 116.562025,31.5352454 Z M139.344831,31.5352454 C137.301272,31.5352454 135.457954,31.0657862 133.814823,30.1268537 C132.171691,29.1879213 130.880678,27.8831009 129.941746,26.2123534 C129.002813,24.541606 128.533354,22.6568654 128.533354,20.5580752 C128.533354,18.459285 129.002813,16.5745445 129.941746,14.903797 C130.880678,13.2330496 132.171691,11.9282292 133.814823,10.9892967 C135.457954,10.0503643 137.301272,9.58090507 139.344831,9.58090507 C141.38839,9.58090507 143.231708,10.0503643 144.874839,10.9892967 C146.517971,11.9282292 147.808984,13.2330496 148.747916,14.903797 C149.686849,16.5745445 150.156308,18.459285 150.156308,20.5580752 C150.156308,22.6568654 149.686849,24.541606 148.747916,26.2123534 C147.808984,27.8831009 146.517971,29.1879213 144.874839,30.1268537 C143.231708,31.0657862 141.38839,31.5352454 139.344831,31.5352454 Z M139.344831,29.6711976 C141.001771,29.6711976 142.48609,29.2845842 143.797834,28.5113457 C145.109578,27.7381072 146.14515,26.6611126 146.90458,25.2803296 C147.664011,23.8995465 148.043721,22.3254775 148.043721,20.5580752 C148.043721,18.790673 147.664011,17.2166039 146.90458,15.8358209 C146.14515,14.4550379 145.109578,13.3780433 143.797834,12.6048048 C142.48609,11.8315663 141.001771,11.4449528 139.344831,11.4449528 C137.687891,11.4449528 136.203572,11.8315663 134.891828,12.6048048 C133.580084,13.3780433 132.544512,14.4550379 131.785082,15.8358209 C131.025651,17.2166039 130.645941,18.790673 130.645941,20.5580752 C130.645941,22.3254775 131.025651,23.8995465 131.785082,25.2803296 C132.544512,26.6611126 133.580084,27.7381072 134.891828,28.5113457 C136.203572,29.2845842 137.687891,29.6711976 139.344831,29.6711976 Z M163.080373,2.24898388 C160.374038,2.24898388 159.020891,3.69878431 159.020891,6.59842866 L159.020891,9.74659821 L165.938579,9.74659821 L165.938579,11.5277994 L159.062314,11.5277994 L159.062314,31.3695522 L156.99115,31.3695522 L156.99115,11.5277994 L153.014515,11.5277994 L153.014515,9.74659821 L156.99115,9.74659821 L156.99115,6.43273552 C156.99115,4.61010193 157.51584,3.1603015 158.565235,2.08329075 C159.61463,1.00627999 161.092045,0.467782687 162.997526,0.467782687 C163.825996,0.467782687 164.619934,0.585147483 165.379365,0.819880597 C166.138795,1.05461371 166.767042,1.4067081 167.264124,1.87617433 L166.435659,3.4502591 C165.551957,2.64940495 164.43354,2.24898388 163.080373,2.24898388 Z M180.892384,30.0025839 C180.367687,30.4996658 179.711825,30.8793754 178.924779,31.1417242 C178.137732,31.404073 177.316179,31.5352454 176.460093,31.5352454 C174.582228,31.5352454 173.132428,31.0174595 172.110648,29.9818722 C171.088869,28.946285 170.577987,27.5033884 170.577987,25.6531391 L170.577987,11.5277994 L166.601352,11.5277994 L166.601352,9.74659821 L170.577987,9.74659821 L170.577987,5.02434388 L172.649151,5.02434388 L172.649151,9.74659821 L179.525416,9.74659821 L179.525416,11.5277994 L172.649151,11.5277994 L172.649151,25.4460227 C172.649151,26.8544214 172.987438,27.9245122 173.664021,28.6563272 C174.340605,29.3881422 175.341658,29.7540442 176.66721,29.7540442 C178.020377,29.7540442 179.138794,29.3536231 180.022496,28.552769 L180.892384,30.0025839 Z M217.137758,9.74659821 L208.935947,31.3695522 L206.989053,31.3695522 L199.698555,12.6048048 L192.366634,31.3695522 L190.461163,31.3695522 L182.259353,9.74659821 L184.24767,9.74659821 L191.455322,29.0498484 L198.828666,9.74659821 L200.609867,9.74659821 L207.941789,29.0084251 L215.232287,9.74659821 L217.137758,9.74659821 Z M228.570584,9.58090507 C231.249303,9.58090507 233.306639,10.2643824 234.742653,11.6313576 C236.178667,12.9983328 236.896664,15.007342 236.896664,17.6584454 L236.896664,31.3695522 L234.908346,31.3695522 L234.908346,27.5171869 C234.217955,28.7875072 233.209998,29.7747523 231.884447,30.4789516 C230.558895,31.183151 228.971018,31.5352454 227.120769,31.5352454 C224.718206,31.5352454 222.819658,30.9691328 221.425067,29.8368907 C220.030477,28.7046487 219.333192,27.2134254 219.333192,25.3631761 C219.333192,23.5681582 219.975246,22.111454 221.259374,20.9930197 C222.543503,19.8745855 224.593935,19.3153767 227.410732,19.3153767 L234.8255,19.3153767 L234.8255,17.5755988 C234.8255,15.5596556 234.280099,14.0270094 233.18928,12.9776143 C232.098461,11.9282192 230.503681,11.4035296 228.404891,11.4035296 C226.968876,11.4035296 225.595018,11.6520668 224.283274,12.1491487 C222.97153,12.6462305 221.860016,13.3089965 220.9487,14.1374663 L219.913118,12.6462281 C220.990128,11.6796799 222.288045,10.9271645 223.806906,10.3886591 C225.325768,9.85015373 226.913644,9.58090507 228.570584,9.58090507 Z M227.410732,29.8368907 C229.20575,29.8368907 230.731492,29.4226621 231.988005,28.5941922 C233.244517,27.7657224 234.19034,26.5644592 234.8255,24.9903666 L234.8255,20.9308848 L227.452155,20.9308848 C225.325749,20.9308848 223.786199,21.3174982 222.833459,22.0907367 C221.880719,22.8639752 221.404356,23.9271622 221.404356,25.2803296 C221.404356,26.6887282 221.929045,27.8002419 222.978441,28.6149039 C224.027836,29.4295659 225.505251,29.8368907 227.410732,29.8368907 Z M247.418178,14.4688525 C248.080954,12.8947599 249.116525,11.6865929 250.524924,10.8443152 C251.933323,10.0020376 253.645468,9.58090507 255.661411,9.58090507 L255.661411,11.610646 L255.164332,11.5692227 C252.761769,11.5692227 250.883933,12.3217381 249.530765,13.8267916 C248.177598,15.3318451 247.501024,17.4237 247.501024,20.1024191 L247.501024,31.3695522 L245.42986,31.3695522 L245.42986,9.74659821 L247.418178,9.74659821 L247.418178,14.4688525 Z M279.438376,21.0551546 L260.839322,21.0551546 C260.894553,22.7397099 261.322589,24.237837 262.123444,25.5495809 C262.924298,26.8613248 264.008196,27.8761851 265.375171,28.5941922 C266.742147,29.3121994 268.281697,29.6711976 269.993867,29.6711976 C271.402266,29.6711976 272.707087,29.4157566 273.908368,28.9048669 C275.109649,28.3939771 276.110702,27.6414617 276.911556,26.6472979 L278.112831,28.0142663 C277.173899,29.1465083 275.993347,30.0163886 274.57114,30.6239331 C273.148934,31.2314777 271.609384,31.5352454 269.952444,31.5352454 C267.798423,31.5352454 265.879163,31.0657862 264.194608,30.1268537 C262.510052,29.1879213 261.191424,27.8900047 260.238684,26.2330651 C259.285944,24.5761254 258.809581,22.6844811 258.809581,20.5580752 C258.809581,18.459285 259.258329,16.5745445 260.155838,14.903797 C261.053347,13.2330496 262.289129,11.9282292 263.863221,10.9892967 C265.437314,10.0503643 267.20469,9.58090507 269.165402,9.58090507 C271.126114,9.58090507 272.886586,10.0434604 274.44687,10.9685851 C276.007155,11.8937097 277.236034,13.1847225 278.133543,14.8416621 C279.031052,16.4986017 279.479799,18.3764385 279.479799,20.4752287 L279.438376,21.0551546 Z M269.165402,11.4035296 C267.64654,11.4035296 266.279586,11.7418163 265.064497,12.4184 C263.849408,13.0949837 262.87597,14.0477097 262.144155,15.2766066 C261.41234,16.5055035 260.991208,17.8931696 260.880745,19.4396466 L277.450059,19.4396466 C277.367212,17.8931696 276.952983,16.5124073 276.20736,15.2973182 C275.461737,14.0822291 274.481396,13.1295032 273.266307,12.4391116 C272.051218,11.7487201 270.684263,11.4035296 269.165402,11.4035296 Z" id="path-1"></path>
    </defs>
    <g id="Page-1" stroke="none" stroke-width="1" fill="none" fill-rule="evenodd">
        <g id="awww-software" fill="#FFFFFF">
            <g id="software">
                <use xlink:href="#path-1"></use>
                <use xlink:href="#path-1"></use>
            </g>
            <path d="M18.1874627,28.2841791 L18.1874627,16.878806 C18.22728,15.7752418 17.9977841,14.6785792 17.518806,13.6835821 C17.1055782,12.8708999 16.4863552,12.1808615 15.7229851,11.6823881 C14.9130398,11.1665281 14.0060619,10.8219415 13.0579104,10.6698507 C11.9730577,10.479566 10.8733385,10.3868571 9.7719403,10.3928358 C8.78865635,10.3888241 7.80808055,10.4961747 6.84895522,10.7128358 C5.97134989,10.9083476 5.12673839,11.2301043 4.34149254,11.6680597 C3.64231567,12.050784 3.0370464,12.5842693 2.56955224,13.2298507 C2.13121223,13.8528732 1.90056743,14.5982905 1.91044776,15.36 C1.8887944,15.7886509 1.97587082,16.2158183 2.16358209,16.601791 C2.31124813,16.8861558 2.52398785,17.1316247 2.78447761,17.318209 C3.03934781,17.4890939 3.33033518,17.5986229 3.63462687,17.638209 C3.95116495,17.6819907 4.27030005,17.7043301 4.58985075,17.7050746 C4.80477612,17.7050746 5.06746269,17.7050746 5.39701493,17.7050746 C5.71257357,17.6925018 6.02325184,17.6229228 6.31402985,17.4997015 C6.60955709,17.372482 6.87005271,17.1758816 7.07343284,16.9265672 C7.30555818,16.6144806 7.42052481,16.2306949 7.39820896,15.8423881 C7.39820896,15.7516418 7.39820896,15.5844776 7.35044776,15.3361194 C7.30268657,15.0877612 7.28835821,14.8298507 7.25970149,14.5576119 C7.23104478,14.2853731 7.1641791,14.0035821 7.1641791,13.7743284 C7.13826468,13.6162827 7.12231282,13.456764 7.11641791,13.2967164 C7.11641791,12.4370149 7.37432836,11.8638806 7.89970149,11.5247761 C8.45562593,11.1960588 9.09288326,11.0305374 9.73850746,11.0471642 C10.841791,11.0471642 11.5916418,11.3814925 11.9928358,12.0597015 C12.3903319,12.7486271 12.5918305,13.5331503 12.5755224,14.3283582 L12.5755224,17.1319403 C12.592708,17.6220295 12.5064571,18.1102419 12.3223881,18.5647761 C12.1173755,18.9690357 11.8071936,19.3105657 11.4244776,19.5534328 C10.8589058,19.9082792 10.2485553,20.1861493 9.60955224,20.3797015 C8.82626866,20.6423881 7.80895522,20.9528358 6.5480597,21.3349254 C5.7838806,21.5832836 5.04039801,21.8364179 4.31761194,22.0943284 C3.63602505,22.3395886 2.99277192,22.6805127 2.40716418,23.1068657 C1.84792546,23.5132852 1.37811944,24.0302344 1.02686567,24.6256716 C0.652346472,25.2929418 0.462735006,26.0480901 0.47761194,26.8131343 C0.454548084,27.5854472 0.662417651,28.3470813 1.07462687,29.000597 C1.46915442,29.5928338 2.008377,30.0745173 2.64119403,30.4 C3.31281916,30.7487677 4.03219622,30.9966068 4.7761194,31.1355224 C5.51818372,31.2859607 6.27329055,31.3627512 7.03044776,31.3647761 C8.65432836,31.3647761 9.8961194,31.1546269 10.7558209,30.72 C11.7151688,30.1727691 12.4356444,29.2870781 12.7761194,28.2364179 L12.8716418,28.2364179 C13.0168744,29.1580787 13.5197177,29.9852816 14.2710448,30.5385075 C15.0256716,31.0925373 16.1814925,31.3552239 17.7432836,31.3647761 C17.9104478,31.3647761 18.0537313,31.3647761 18.2208955,31.3647761 L18.1874627,28.2841791 Z M12.5755224,25.4185075 C12.5919693,26.1887912 12.4986956,26.957495 12.2985075,27.7014925 C12.154223,28.2506971 11.9044022,28.7665607 11.5629851,29.2202985 C11.2831411,29.5878165 10.9218216,29.8853737 10.5074627,30.0895522 C10.1430467,30.2682631 9.74317463,30.3629267 9.33731343,30.3665672 C8.7463914,30.4026673 8.16108461,30.233991 7.68,29.8889552 C7.29097017,29.5748271 6.9830382,29.1718948 6.78208955,28.7140299 C6.58685264,28.2580683 6.46281901,27.7748204 6.41432836,27.281194 C6.37134328,26.8035821 6.34746269,26.3641791 6.34746269,25.9964179 C6.31710893,25.221555 6.46583743,24.450128 6.78208955,23.7420896 C7.06221282,23.1760474 7.45181863,22.6711832 7.92835821,22.2567164 C8.39891119,21.8529444 8.92686962,21.5213607 9.49492537,21.2728358 C10.0728358,21.0101493 10.6602985,20.7426866 11.2429851,20.4656716 C11.5667114,20.3185754 11.8675216,20.1255421 12.1361194,19.8925373 C12.2915295,19.744958 12.410836,19.5635467 12.4847761,19.3623881 L12.5755224,19.3623881 L12.5755224,25.4185075 Z" id="Shape" fill-rule="nonzero"></path>
            <polygon id="Shape" fill-rule="nonzero" points="104.296119 10.3928358 99.6107463 22.9970149 99.5868657 22.9970149 98.6698507 25.480597 99.0519403 21.8077612 94.5862687 10.3928358 88.6447761 10.3928358 89.7480597 13.2059701 86.118209 22.9970149 86.0943284 22.9970149 85.1773134 25.480597 85.559403 21.8029851 81.0985075 10.3928358 75.1570149 10.3928358 76.2602985 13.2107463 74.760597 17.2513433 71.7229851 25.480597 72.1002985 21.8746269 67.6107463 10.3928358 67.6107463 10.3928358 61.6692537 10.3928358 61.6644776 10.3928358 62.7725373 13.2059701 59.1379104 22.9970149 59.1092537 22.9970149 58.1922388 25.480597 58.5791045 21.7934328 54.118209 10.3928358 54.118209 10.3928358 48.1767164 10.3928358 48.1767164 10.3928358 49.28 13.2107463 46.7725373 19.9737313 44.7379104 25.480597 45.1152239 21.8650746 40.6304478 10.3928358 34.6889552 10.3928358 35.7922388 13.2059701 32.1623881 22.9970149 32.1241791 22.9970149 31.2071642 25.480597 31.5940299 21.7791045 27.1379104 10.3928358 21.1964179 10.3928358 29.4447761 31.3647761 29.7695522 31.3647761 36.1647761 14.1564179 42.9373134 31.3647761 43.2573134 31.3647761 49.6525373 14.1659701 56.4250746 31.3647761 56.4250746 31.3647761 56.7498507 31.3647761 56.7498507 31.3647761 63.1402985 14.1659701 69.4543284 30.1946269 69.9176119 31.3647761 69.9176119 31.3647761 70.2376119 31.3647761 70.2376119 31.3647761 76.6376119 14.1850746 83.4053731 31.3647761 83.7253731 31.3647761 90.120597 14.1659701 96.8979104 31.3647761 97.2179104 31.3647761 105.031642 10.3928358"></polygon>
            <circle id="Oval" fill-rule="nonzero" cx="104.143284" cy="30.4764179" r="1"></circle>
        </g>
    </g>
</svg>