<?xml version="1.0" encoding="UTF-8"?>
<svg width="210px" height="24px" viewBox="0 0 210 24" version="1.1" xmlns="http://www.w3.org/2000/svg" xmlns:xlink="http://www.w3.org/1999/xlink">
    <!-- Generator: Sketch 51.3 (57544) - http://www.bohemiancoding.com/sketch -->
    <title>awww-software-32px-height</title>
    <desc>Created with Sketch.</desc>
    <defs></defs>
    <g id="Page-1" stroke="none" stroke-width="1" fill="none" fill-rule="evenodd">
        <g id="awww-software-32px-height" fill="#FFFFFF" fill-rule="nonzero">
            <g id="software" transform="translate(80.250000, 0.000000)">
                <path d="M7.17151875,23.651434 C5.8666785,23.651434 4.623993,23.4546754 3.44342325,23.0611522 C2.2628535,22.667629 1.341195,22.1705546 0.67841925,21.569914 L1.3929705,20.3272155 C2.05574625,20.8864327 2.910093,21.3524399 3.95603625,21.7252513 C5.0019795,22.0980628 6.0945075,22.2844657 7.233654,22.2844657 C8.86988175,22.2844657 10.0763227,22.015217 10.853013,21.4767116 C11.6297032,20.9382063 12.0180427,20.1925946 12.0180427,19.2398543 C12.0180427,18.5563667 11.8057507,18.0178694 11.38116,17.6243463 C10.9565692,17.2308231 10.4336055,16.940863 9.812253,16.7544573 C9.1909005,16.5680516 8.3313765,16.3712929 7.233654,16.1641755 C5.94952575,15.9363463 4.9139535,15.6878091 4.12690725,15.4185564 C3.339861,15.1493037 2.66673975,14.7143636 2.1075225,14.113723 C1.54830525,13.5130824 1.26870075,12.684625 1.26870075,11.6283259 C1.26870075,10.3441978 1.8020205,9.28273672 2.868675,8.44391107 C3.93533025,7.60508535 5.452443,7.1856788 7.42005825,7.1856788 C8.4556455,7.1856788 9.48086175,7.33065885 10.495737,7.62062325 C11.510613,7.91058772 12.3390705,8.29374922 12.9811342,8.77011937 L12.266583,10.0128179 C11.6038065,9.53644777 10.8478395,9.17399767 9.998658,8.92545675 C9.1494765,8.67691575 8.27959575,8.5526472 7.388991,8.5526472 C5.87703375,8.5526472 4.7379045,8.83225155 3.97157025,9.39146865 C3.20523525,9.95068575 2.82207375,10.6859417 2.82207375,11.5972585 C2.82207375,12.3221696 3.03954375,12.8865562 3.4744905,13.2904352 C3.90943725,13.6943143 4.442757,13.99463 5.07446475,14.1913916 C5.70617325,14.3881532 6.59158725,14.6004454 7.730733,14.8282746 C8.99414925,15.0561038 10.0141875,15.2994631 10.7908785,15.55836 C11.5675687,15.8172568 12.2251567,16.2366634 12.763662,16.8165922 C13.3021672,17.3965211 13.5714157,18.1939114 13.5714157,19.2087868 C13.5714157,20.5550503 13.0122075,21.6320449 11.893773,22.439803 C10.7753392,23.2475611 9.20127,23.651434 7.17151875,23.651434 Z M24.2586232,23.651434 C22.725954,23.651434 21.3434655,23.2993397 20.1111172,22.5951403 C18.8787683,21.890941 17.9105085,20.9123257 17.2063095,19.6592651 C16.5021097,18.4062045 16.1500155,16.992649 16.1500155,15.4185564 C16.1500155,13.8444638 16.5021097,12.4309084 17.2063095,11.1778477 C17.9105085,9.9247872 18.8787683,8.9461719 20.1111172,8.24197252 C21.3434655,7.53777322 22.725954,7.1856788 24.2586232,7.1856788 C25.7912925,7.1856788 27.173781,7.53777322 28.4061292,8.24197252 C29.6384782,8.9461719 30.606738,9.9247872 31.310937,11.1778477 C32.0151367,12.4309084 32.367231,13.8444638 32.367231,15.4185564 C32.367231,16.992649 32.0151367,18.4062045 31.310937,19.6592651 C30.606738,20.9123257 29.6384782,21.890941 28.4061292,22.5951403 C27.173781,23.2993397 25.7912925,23.651434 24.2586232,23.651434 Z M24.2586232,22.2533982 C25.5013282,22.2533982 26.6145675,21.9634381 27.5983755,21.3835093 C28.5821835,20.8035804 29.3588625,19.9958344 29.928435,18.9602472 C30.4980082,17.9246599 30.7827907,16.7441081 30.7827907,15.4185564 C30.7827907,14.0930047 30.4980082,12.9124529 29.928435,11.8768657 C29.3588625,10.8412784 28.5821835,10.0335325 27.5983755,9.4536036 C26.6145675,8.87367473 25.5013282,8.5837146 24.2586232,8.5837146 C23.0159182,8.5837146 21.902679,8.87367473 20.918871,9.4536036 C19.935063,10.0335325 19.158384,10.8412784 18.5888115,11.8768657 C18.0192383,12.9124529 17.7344557,14.0930047 17.7344557,15.4185564 C17.7344557,16.7441081 18.0192383,17.9246599 18.5888115,18.9602472 C19.158384,19.9958344 19.935063,20.8035804 20.918871,21.3835093 C21.902679,21.9634381 23.0159182,22.2533982 24.2586232,22.2533982 Z M42.0602797,1.68673791 C40.0305285,1.68673791 39.0156682,2.77408823 39.0156682,4.94882149 L39.0156682,7.30994866 L44.2039342,7.30994866 L44.2039342,8.64584955 L39.0467355,8.64584955 L39.0467355,23.5271641 L37.4933625,23.5271641 L37.4933625,8.64584955 L34.5108862,8.64584955 L34.5108862,7.30994866 L37.4933625,7.30994866 L37.4933625,4.82455164 C37.4933625,3.45757645 37.88688,2.37022612 38.6739262,1.56246806 C39.4609725,0.754709992 40.5690338,0.350837015 41.9981445,0.350837015 C42.619497,0.350837015 43.2149505,0.438860612 43.7845237,0.614910448 C44.3540962,0.790960282 44.8252815,1.05503107 45.198093,1.40713075 L44.5767442,2.58769432 C43.9139677,1.98705371 43.075155,1.68673791 42.0602797,1.68673791 Z M55.419288,22.5019379 C55.0257652,22.8747493 54.5338687,23.1595315 53.9435842,23.3562931 C53.353299,23.5530547 52.7371342,23.651434 52.0950697,23.651434 C50.686671,23.651434 49.599321,23.2630946 48.832986,22.4864041 C48.0666517,21.7097137 47.6834902,20.6275413 47.6834902,19.2398543 L47.6834902,8.64584955 L44.701014,8.64584955 L44.701014,7.30994866 L47.6834902,7.30994866 L47.6834902,3.76825791 L49.2368632,3.76825791 L49.2368632,7.30994866 L54.394062,7.30994866 L54.394062,8.64584955 L49.2368632,8.64584955 L49.2368632,19.084517 C49.2368632,20.140816 49.4905785,20.9433841 49.9980157,21.4922454 C50.5054537,22.0411066 51.2562435,22.3155331 52.2504075,22.3155331 C53.2652827,22.3155331 54.1040955,22.0152173 54.766872,21.4145767 L55.419288,22.5019379 Z M82.6033185,7.30994866 L76.4519602,23.5271641 L74.9917897,23.5271641 L69.5239162,9.4536036 L64.0249755,23.5271641 L62.5958722,23.5271641 L56.4445147,7.30994866 L57.9357525,7.30994866 L63.3414915,21.7873863 L68.8714995,7.30994866 L70.2074002,7.30994866 L75.7063417,21.7563188 L81.1742152,7.30994866 L82.6033185,7.30994866 Z M91.177938,7.1856788 C93.1869772,7.1856788 94.7299792,7.6982868 95.8069897,8.7235182 C96.8840002,9.7487496 97.422498,11.2555065 97.422498,13.2438341 L97.422498,23.5271641 L95.9312595,23.5271641 L95.9312595,20.6378902 C95.4134662,21.5906304 94.6574985,22.3310642 93.6633352,22.8592137 C92.6691712,23.3873632 91.4782635,23.651434 90.0905767,23.651434 C88.2886545,23.651434 86.8647435,23.2268496 85.8188002,22.377668 C84.7728577,21.5284865 84.249894,20.410069 84.249894,19.0223821 C84.249894,17.6761186 84.7314345,16.5835905 85.6945305,15.7447648 C86.6576272,14.9059391 88.1954512,14.4865325 90.308049,14.4865325 L95.869125,14.4865325 L95.869125,13.1816991 C95.869125,11.6697417 95.4600742,10.520257 94.64196,9.73321072 C93.8238457,8.9461644 92.6277607,8.5526472 91.0536682,8.5526472 C89.976657,8.5526472 88.9462635,8.7390501 87.9624555,9.11186153 C86.9786475,9.48467287 86.145012,9.98174737 85.461525,10.6030997 L84.6848385,9.48467107 C85.492596,8.75975992 86.4660337,8.19537337 87.6051795,7.79149432 C88.744326,7.3876153 89.935233,7.1856788 91.177938,7.1856788 Z M90.308049,22.377668 C91.6543125,22.377668 92.798619,22.0669966 93.7410037,21.4456441 C94.6833877,20.8242918 95.392755,19.9233444 95.869125,18.7427749 L95.869125,15.6981636 L90.3391162,15.6981636 C88.7443117,15.6981636 87.5896492,15.9881236 86.8750942,16.5680525 C86.1605392,17.1479814 85.803267,17.9453716 85.803267,18.9602472 C85.803267,20.0165461 86.1967837,20.8501814 86.9838307,21.4611779 C87.770877,22.0721744 88.8789382,22.377668 90.308049,22.377668 Z M105.313633,10.8516394 C105.810715,9.67106992 106.587394,8.76494467 107.643693,8.1332364 C108.699992,7.5015282 109.984101,7.1856788 111.496058,7.1856788 L111.496058,8.7079845 L111.123249,8.67691702 C109.321327,8.67691702 107.91295,9.24130357 106.898074,10.3700937 C105.883198,11.4988838 105.375768,13.067775 105.375768,15.0768143 L105.375768,23.5271641 L103.822395,23.5271641 L103.822395,7.30994866 L105.313633,7.30994866 L105.313633,10.8516394 Z M129.328782,15.791366 L115.379491,15.791366 C115.420915,17.0547824 115.741942,18.1783777 116.342583,19.1621857 C116.943223,20.1459936 117.756147,20.9071388 118.781378,21.4456441 C119.80661,21.9841495 120.961273,22.2533982 122.2454,22.2533982 C123.301699,22.2533982 124.280315,22.0618174 125.181276,21.6786502 C126.082237,21.2954828 126.833026,20.7310963 127.433667,19.9854734 L128.334623,21.0106997 C127.630424,21.8598812 126.74501,22.5122914 125.678355,22.9679498 C124.6117,23.4236083 123.457038,23.651434 122.214333,23.651434 C120.598817,23.651434 119.159372,23.2993397 117.895956,22.5951403 C116.632539,21.890941 115.643568,20.9175035 114.929013,19.6747988 C114.214458,18.432094 113.857186,17.0133608 113.857186,15.4185564 C113.857186,13.8444638 114.193747,12.4309084 114.866878,11.1778477 C115.54001,9.9247872 116.466847,8.9461719 117.647416,8.24197252 C118.827985,7.53777322 120.153517,7.1856788 121.624051,7.1856788 C123.094585,7.1856788 124.414939,7.5325953 125.585152,8.22643882 C126.755366,8.92028227 127.677025,9.88854187 128.350157,11.1312466 C129.023289,12.3739513 129.359849,13.7823289 129.359849,15.3564215 L129.328782,15.791366 Z M121.624051,8.5526472 C120.484905,8.5526472 119.459689,8.80636222 118.548373,9.3138 C117.637056,9.82123777 116.906977,10.5357823 116.358116,11.4574549 C115.809255,12.3791276 115.493406,13.4198772 115.410559,14.5797349 L127.837544,14.5797349 C127.775409,13.4198772 127.464737,12.3843055 126.90552,11.4729886 C126.346303,10.5616718 125.611047,9.8471274 124.69973,9.3293337 C123.788413,8.81154007 122.763197,8.5526472 121.624051,8.5526472 Z" id="path-1"></path>
                <path d="M7.17151875,23.651434 C5.8666785,23.651434 4.623993,23.4546754 3.44342325,23.0611522 C2.2628535,22.667629 1.341195,22.1705546 0.67841925,21.569914 L1.3929705,20.3272155 C2.05574625,20.8864327 2.910093,21.3524399 3.95603625,21.7252513 C5.0019795,22.0980628 6.0945075,22.2844657 7.233654,22.2844657 C8.86988175,22.2844657 10.0763227,22.015217 10.853013,21.4767116 C11.6297032,20.9382063 12.0180427,20.1925946 12.0180427,19.2398543 C12.0180427,18.5563667 11.8057507,18.0178694 11.38116,17.6243463 C10.9565692,17.2308231 10.4336055,16.940863 9.812253,16.7544573 C9.1909005,16.5680516 8.3313765,16.3712929 7.233654,16.1641755 C5.94952575,15.9363463 4.9139535,15.6878091 4.12690725,15.4185564 C3.339861,15.1493037 2.66673975,14.7143636 2.1075225,14.113723 C1.54830525,13.5130824 1.26870075,12.684625 1.26870075,11.6283259 C1.26870075,10.3441978 1.8020205,9.28273672 2.868675,8.44391107 C3.93533025,7.60508535 5.452443,7.1856788 7.42005825,7.1856788 C8.4556455,7.1856788 9.48086175,7.33065885 10.495737,7.62062325 C11.510613,7.91058772 12.3390705,8.29374922 12.9811342,8.77011937 L12.266583,10.0128179 C11.6038065,9.53644777 10.8478395,9.17399767 9.998658,8.92545675 C9.1494765,8.67691575 8.27959575,8.5526472 7.388991,8.5526472 C5.87703375,8.5526472 4.7379045,8.83225155 3.97157025,9.39146865 C3.20523525,9.95068575 2.82207375,10.6859417 2.82207375,11.5972585 C2.82207375,12.3221696 3.03954375,12.8865562 3.4744905,13.2904352 C3.90943725,13.6943143 4.442757,13.99463 5.07446475,14.1913916 C5.70617325,14.3881532 6.59158725,14.6004454 7.730733,14.8282746 C8.99414925,15.0561038 10.0141875,15.2994631 10.7908785,15.55836 C11.5675687,15.8172568 12.2251567,16.2366634 12.763662,16.8165922 C13.3021672,17.3965211 13.5714157,18.1939114 13.5714157,19.2087868 C13.5714157,20.5550503 13.0122075,21.6320449 11.893773,22.439803 C10.7753392,23.2475611 9.20127,23.651434 7.17151875,23.651434 Z M24.2586232,23.651434 C22.725954,23.651434 21.3434655,23.2993397 20.1111172,22.5951403 C18.8787683,21.890941 17.9105085,20.9123257 17.2063095,19.6592651 C16.5021097,18.4062045 16.1500155,16.992649 16.1500155,15.4185564 C16.1500155,13.8444638 16.5021097,12.4309084 17.2063095,11.1778477 C17.9105085,9.9247872 18.8787683,8.9461719 20.1111172,8.24197252 C21.3434655,7.53777322 22.725954,7.1856788 24.2586232,7.1856788 C25.7912925,7.1856788 27.173781,7.53777322 28.4061292,8.24197252 C29.6384782,8.9461719 30.606738,9.9247872 31.310937,11.1778477 C32.0151367,12.4309084 32.367231,13.8444638 32.367231,15.4185564 C32.367231,16.992649 32.0151367,18.4062045 31.310937,19.6592651 C30.606738,20.9123257 29.6384782,21.890941 28.4061292,22.5951403 C27.173781,23.2993397 25.7912925,23.651434 24.2586232,23.651434 Z M24.2586232,22.2533982 C25.5013282,22.2533982 26.6145675,21.9634381 27.5983755,21.3835093 C28.5821835,20.8035804 29.3588625,19.9958344 29.928435,18.9602472 C30.4980082,17.9246599 30.7827907,16.7441081 30.7827907,15.4185564 C30.7827907,14.0930047 30.4980082,12.9124529 29.928435,11.8768657 C29.3588625,10.8412784 28.5821835,10.0335325 27.5983755,9.4536036 C26.6145675,8.87367473 25.5013282,8.5837146 24.2586232,8.5837146 C23.0159182,8.5837146 21.902679,8.87367473 20.918871,9.4536036 C19.935063,10.0335325 19.158384,10.8412784 18.5888115,11.8768657 C18.0192383,12.9124529 17.7344557,14.0930047 17.7344557,15.4185564 C17.7344557,16.7441081 18.0192383,17.9246599 18.5888115,18.9602472 C19.158384,19.9958344 19.935063,20.8035804 20.918871,21.3835093 C21.902679,21.9634381 23.0159182,22.2533982 24.2586232,22.2533982 Z M42.0602797,1.68673791 C40.0305285,1.68673791 39.0156682,2.77408823 39.0156682,4.94882149 L39.0156682,7.30994866 L44.2039342,7.30994866 L44.2039342,8.64584955 L39.0467355,8.64584955 L39.0467355,23.5271641 L37.4933625,23.5271641 L37.4933625,8.64584955 L34.5108862,8.64584955 L34.5108862,7.30994866 L37.4933625,7.30994866 L37.4933625,4.82455164 C37.4933625,3.45757645 37.88688,2.37022612 38.6739262,1.56246806 C39.4609725,0.754709992 40.5690338,0.350837015 41.9981445,0.350837015 C42.619497,0.350837015 43.2149505,0.438860612 43.7845237,0.614910448 C44.3540962,0.790960282 44.8252815,1.05503107 45.198093,1.40713075 L44.5767442,2.58769432 C43.9139677,1.98705371 43.075155,1.68673791 42.0602797,1.68673791 Z M55.419288,22.5019379 C55.0257652,22.8747493 54.5338687,23.1595315 53.9435842,23.3562931 C53.353299,23.5530547 52.7371342,23.651434 52.0950697,23.651434 C50.686671,23.651434 49.599321,23.2630946 48.832986,22.4864041 C48.0666517,21.7097137 47.6834902,20.6275413 47.6834902,19.2398543 L47.6834902,8.64584955 L44.701014,8.64584955 L44.701014,7.30994866 L47.6834902,7.30994866 L47.6834902,3.76825791 L49.2368632,3.76825791 L49.2368632,7.30994866 L54.394062,7.30994866 L54.394062,8.64584955 L49.2368632,8.64584955 L49.2368632,19.084517 C49.2368632,20.140816 49.4905785,20.9433841 49.9980157,21.4922454 C50.5054537,22.0411066 51.2562435,22.3155331 52.2504075,22.3155331 C53.2652827,22.3155331 54.1040955,22.0152173 54.766872,21.4145767 L55.419288,22.5019379 Z M82.6033185,7.30994866 L76.4519602,23.5271641 L74.9917897,23.5271641 L69.5239162,9.4536036 L64.0249755,23.5271641 L62.5958722,23.5271641 L56.4445147,7.30994866 L57.9357525,7.30994866 L63.3414915,21.7873863 L68.8714995,7.30994866 L70.2074002,7.30994866 L75.7063417,21.7563188 L81.1742152,7.30994866 L82.6033185,7.30994866 Z M91.177938,7.1856788 C93.1869772,7.1856788 94.7299792,7.6982868 95.8069897,8.7235182 C96.8840002,9.7487496 97.422498,11.2555065 97.422498,13.2438341 L97.422498,23.5271641 L95.9312595,23.5271641 L95.9312595,20.6378902 C95.4134662,21.5906304 94.6574985,22.3310642 93.6633352,22.8592137 C92.6691712,23.3873632 91.4782635,23.651434 90.0905767,23.651434 C88.2886545,23.651434 86.8647435,23.2268496 85.8188002,22.377668 C84.7728577,21.5284865 84.249894,20.410069 84.249894,19.0223821 C84.249894,17.6761186 84.7314345,16.5835905 85.6945305,15.7447648 C86.6576272,14.9059391 88.1954512,14.4865325 90.308049,14.4865325 L95.869125,14.4865325 L95.869125,13.1816991 C95.869125,11.6697417 95.4600742,10.520257 94.64196,9.73321072 C93.8238457,8.9461644 92.6277607,8.5526472 91.0536682,8.5526472 C89.976657,8.5526472 88.9462635,8.7390501 87.9624555,9.11186153 C86.9786475,9.48467287 86.145012,9.98174737 85.461525,10.6030997 L84.6848385,9.48467107 C85.492596,8.75975992 86.4660337,8.19537337 87.6051795,7.79149432 C88.744326,7.3876153 89.935233,7.1856788 91.177938,7.1856788 Z M90.308049,22.377668 C91.6543125,22.377668 92.798619,22.0669966 93.7410037,21.4456441 C94.6833877,20.8242918 95.392755,19.9233444 95.869125,18.7427749 L95.869125,15.6981636 L90.3391162,15.6981636 C88.7443117,15.6981636 87.5896492,15.9881236 86.8750942,16.5680525 C86.1605392,17.1479814 85.803267,17.9453716 85.803267,18.9602472 C85.803267,20.0165461 86.1967837,20.8501814 86.9838307,21.4611779 C87.770877,22.0721744 88.8789382,22.377668 90.308049,22.377668 Z M105.313633,10.8516394 C105.810715,9.67106992 106.587394,8.76494467 107.643693,8.1332364 C108.699992,7.5015282 109.984101,7.1856788 111.496058,7.1856788 L111.496058,8.7079845 L111.123249,8.67691702 C109.321327,8.67691702 107.91295,9.24130357 106.898074,10.3700937 C105.883198,11.4988838 105.375768,13.067775 105.375768,15.0768143 L105.375768,23.5271641 L103.822395,23.5271641 L103.822395,7.30994866 L105.313633,7.30994866 L105.313633,10.8516394 Z M129.328782,15.791366 L115.379491,15.791366 C115.420915,17.0547824 115.741942,18.1783777 116.342583,19.1621857 C116.943223,20.1459936 117.756147,20.9071388 118.781378,21.4456441 C119.80661,21.9841495 120.961273,22.2533982 122.2454,22.2533982 C123.301699,22.2533982 124.280315,22.0618174 125.181276,21.6786502 C126.082237,21.2954828 126.833026,20.7310963 127.433667,19.9854734 L128.334623,21.0106997 C127.630424,21.8598812 126.74501,22.5122914 125.678355,22.9679498 C124.6117,23.4236083 123.457038,23.651434 122.214333,23.651434 C120.598817,23.651434 119.159372,23.2993397 117.895956,22.5951403 C116.632539,21.890941 115.643568,20.9175035 114.929013,19.6747988 C114.214458,18.432094 113.857186,17.0133608 113.857186,15.4185564 C113.857186,13.8444638 114.193747,12.4309084 114.866878,11.1778477 C115.54001,9.9247872 116.466847,8.9461719 117.647416,8.24197252 C118.827985,7.53777322 120.153517,7.1856788 121.624051,7.1856788 C123.094585,7.1856788 124.414939,7.5325953 125.585152,8.22643882 C126.755366,8.92028227 127.677025,9.88854187 128.350157,11.1312466 C129.023289,12.3739513 129.359849,13.7823289 129.359849,15.3564215 L129.328782,15.791366 Z M121.624051,8.5526472 C120.484905,8.5526472 119.459689,8.80636222 118.548373,9.3138 C117.637056,9.82123777 116.906977,10.5357823 116.358116,11.4574549 C115.809255,12.3791276 115.493406,13.4198772 115.410559,14.5797349 L127.837544,14.5797349 C127.775409,13.4198772 127.464737,12.3843055 126.90552,11.4729886 C126.346303,10.5616718 125.611047,9.8471274 124.69973,9.3293337 C123.788413,8.81154007 122.763197,8.5526472 121.624051,8.5526472 Z" id="path-1"></path>
            </g>
            <path d="M13.640597,21.2131343 L13.640597,12.6591045 C13.67046,11.8314313 13.4983381,11.0089344 13.1391045,10.2626866 C12.8291837,9.65317493 12.3647664,9.13564613 11.7922388,8.76179108 C11.1847798,8.37489608 10.5045464,8.11645612 9.7934328,8.00238803 C8.97979327,7.8596745 8.15500387,7.79014283 7.32895523,7.79462685 C6.59149226,7.79161808 5.85606041,7.87213102 5.13671641,8.03462685 C4.47851242,8.1812607 3.84505379,8.42257823 3.2561194,8.75104478 C2.73173675,9.038088 2.2777848,9.43820198 1.92716418,9.92238803 C1.59840917,10.3896549 1.42542557,10.9487179 1.43283582,11.52 C1.4165958,11.8414882 1.48190311,12.1618637 1.62268657,12.4513432 C1.7334361,12.6646168 1.89299089,12.8487185 2.08835821,12.9886567 C2.27951086,13.1168204 2.49775138,13.1989672 2.72597015,13.2286567 C2.96337371,13.261493 3.20272504,13.2782476 3.44238806,13.2788059 C3.60358209,13.2788059 3.80059702,13.2788059 4.0477612,13.2788059 C4.28443018,13.2693763 4.51743888,13.2171921 4.73552239,13.1247761 C4.95716782,13.0293615 5.15253953,12.8819112 5.30507463,12.6949254 C5.47916864,12.4608604 5.56539361,12.1730212 5.54865672,11.8817911 C5.54865672,11.8137313 5.54865672,11.6883582 5.51283582,11.5020895 C5.47701493,11.3158209 5.46626866,11.122388 5.44477612,10.9182089 C5.42328359,10.7140298 5.37313432,10.5026866 5.37313432,10.3307463 C5.35369851,10.212212 5.34173462,10.092573 5.33731343,9.9725373 C5.33731343,9.32776117 5.53074627,8.89791045 5.92477612,8.64358208 C6.34171945,8.3970441 6.81966245,8.27290305 7.30388059,8.28537315 C8.13134325,8.28537315 8.69373135,8.53611938 8.99462685,9.04477612 C9.29274893,9.56147033 9.44387288,10.1498627 9.4316418,10.7462686 L9.4316418,12.8489552 C9.444531,13.2165221 9.37984283,13.5826814 9.24179107,13.9235821 C9.08803162,14.2267768 8.8553952,14.4829243 8.5683582,14.6650746 C8.14417935,14.9312094 7.68641647,15.139612 7.20716418,15.2847761 C6.6197015,15.4817911 5.85671642,15.7146268 4.91104477,16.001194 C4.33791045,16.1874627 3.78029851,16.3773134 3.23820895,16.5707463 C2.72701879,16.7546914 2.24457894,17.0103845 1.80537313,17.3301493 C1.38594409,17.6349639 1.03358958,18.0226758 0.770149252,18.4692537 C0.489259854,18.9697063 0.347051254,19.5360676 0.358208955,20.1098507 C0.340911063,20.6890854 0.496813238,21.260311 0.805970152,21.7504477 C1.10186581,22.1946253 1.50628275,22.555888 1.98089552,22.8 C2.48461437,23.0615758 3.02414717,23.2474551 3.58208955,23.3516418 C4.13863779,23.4644705 4.70496791,23.5220634 5.27283582,23.5235821 C6.49074627,23.5235821 7.42208955,23.3659702 8.06686567,23.04 C8.7863766,22.6295768 9.3267333,21.9653086 9.58208955,21.1773134 L9.65373135,21.1773134 C9.7626558,21.868559 10.1397883,22.4889612 10.7032836,22.9038806 C11.2692537,23.319403 12.1361194,23.5164179 13.3074627,23.5235821 C13.4328359,23.5235821 13.5402985,23.5235821 13.6656716,23.5235821 L13.640597,21.2131343 Z M9.4316418,19.0638806 C9.44397697,19.6415934 9.3740217,20.2181212 9.22388062,20.7761194 C9.11566725,21.1880228 8.92830165,21.5749205 8.67223882,21.9152239 C8.46235582,22.1908624 8.1913662,22.4140303 7.88059702,22.5671641 C7.60728502,22.7011973 7.30738097,22.772195 7.00298507,22.7749254 C6.55979355,22.8020005 6.12081346,22.6754932 5.76,22.4167164 C5.46822763,22.1811203 5.23727865,21.8789211 5.08656716,21.5355224 C4.94013948,21.1935512 4.84711426,20.8311153 4.81074627,20.4608955 C4.77850746,20.1026866 4.76059702,19.7731343 4.76059702,19.4973134 C4.7378317,18.9161662 4.84937807,18.337596 5.08656716,17.8065672 C5.29665961,17.3820356 5.58886397,17.0033874 5.94626866,16.6925373 C6.29918339,16.3897083 6.69515221,16.1410205 7.12119403,15.9546268 C7.55462685,15.757612 7.99522387,15.5570149 8.43223882,15.3492537 C8.67503355,15.2389315 8.9006412,15.0941566 9.10208955,14.919403 C9.21864712,14.8087185 9.308127,14.67266 9.36358208,14.5217911 L9.4316418,14.5217911 L9.4316418,19.0638806 Z" id="Shape"></path>
            <polygon id="Shape" points="78.2220892 7.79462685 74.7080597 17.2477612 74.6901493 17.2477612 74.002388 19.1104477 74.2889552 16.3558209 70.9397015 7.79462685 66.4835821 7.79462685 67.3110448 9.90447757 64.5886567 17.2477612 64.5707463 17.2477612 63.882985 19.1104477 64.1695522 16.3522388 60.8238806 7.79462685 56.3677612 7.79462685 57.1952239 9.90805972 56.0704477 12.9385075 53.7922388 19.1104477 54.0752239 16.4059702 50.7080597 7.79462685 50.7080597 7.79462685 46.2519403 7.79462685 46.2483582 7.79462685 47.079403 9.90447757 44.3534328 17.2477612 44.3319403 17.2477612 43.6441791 19.1104477 43.9343284 16.3450746 40.5886567 7.79462685 40.5886567 7.79462685 36.1325373 7.79462685 36.1325373 7.79462685 36.96 9.90805972 35.079403 14.9802985 33.5534328 19.1104477 33.8364179 16.3988059 30.4728358 7.79462685 26.0167164 7.79462685 26.8441791 9.90447757 24.1217911 17.2477612 24.0931343 17.2477612 23.4053731 19.1104477 23.6955224 16.3343284 20.3534328 7.79462685 15.8973134 7.79462685 22.0835821 23.5235821 22.3271641 23.5235821 27.1235821 10.6173134 32.202985 23.5235821 32.442985 23.5235821 37.239403 10.6244776 42.3188059 23.5235821 42.3188059 23.5235821 42.562388 23.5235821 42.562388 23.5235821 47.3552239 10.6244776 52.0907463 22.6459702 52.4382089 23.5235821 52.4382089 23.5235821 52.6782089 23.5235821 52.6782089 23.5235821 57.4782089 10.6388059 62.5540298 23.5235821 62.7940298 23.5235821 67.5904477 10.6244776 72.6734328 23.5235821 72.9134328 23.5235821 78.7737315 7.79462685"></polygon>
            <circle id="Oval" cx="78.107463" cy="22.8573134" r="1"></circle>
        </g>
    </g>
</svg>