<?xml version="1.0" encoding="UTF-8"?>
<svg width="396px" height="268px" viewBox="0 0 396 268" version="1.1" xmlns="http://www.w3.org/2000/svg" xmlns:xlink="http://www.w3.org/1999/xlink">
    <!-- Generator: Sketch 51.3 (57544) - http://www.bohemiancoding.com/sketch -->
    <title>Lotto_logo_polska</title>
    <desc>Created with Sketch.</desc>
    <defs></defs>
    <g id="Page-1" stroke="none" stroke-width="1" fill="none" fill-rule="evenodd">
        <g id="Lotto_logo_polska" fill="#FFFFFF" fill-rule="nonzero">
            <path d="M202.232,66.77 C230.521,59.939 259.723,56.969 288.814,58.833 C320.723,60.877 357.023,68.535 379.357,93.372 C405.67,121.969 398.884,161.142 369.598,185.393 C371.862,185 381.329,183.164 385.716,183.146 C386.595,183.139 387.781,183.447 385.523,187.011 C377.204,200.137 366.624,210.117 355,219.989 C355.82,233.488 355.559,250.114 352.987,264.355 C352.572,266.655 350.937,266.346 349.924,265.56 C341.14,258.743 331.757,249.373 325.041,241.27 C306.286,251.496 288.512,258.782 268.979,265.125 C263.244,266.909 265.319,264.076 267.098,261.501 C277.136,247.038 286.056,232.653 295.036,217.508 C291.557,215.376 287.377,212.93 284.529,210.622 C258.406,230.737 227.702,244.993 196.251,254.488 C152.713,267.632 110.176,270.353 76.606,264.132 C40.047,257.355 13.3,239.815 5.037,213.121 C-5.596,178.776 18.303,145.849 42.899,124.428 C46.279,113.988 55.267,93.627 60.348,83.072 C42.464,71.592 17.751,57.532 6.026,49.688 C-3.724,43.114 -1.407,42.198 11.268,40.478 C35.727,37.991 59.537,37.98 83.033,39.669 C90.096,27.364 98.132,14.918 106.098,3.15 C108.273,0.048 109.209,-1.977 111.98,3.042 C120.463,17.413 129.21,31.863 136.331,46.979 C159.111,51.609 180.489,58.87 202.232,66.77 Z M327.761,175.967 C324.707,183.672 321.955,191.866 319.178,199.312 C310.495,199.825 301.869,200.017 294.377,200.166 C293.836,200.179 293.552,200.616 294.219,201.08 C300.146,204.859 305.647,207.824 312.974,213.052 C308.494,222.097 303.151,230.176 297.934,238.785 C297.203,239.909 297.054,240.728 298.884,239.881 C308.631,235.448 318.734,229.443 326.873,223.995 C331.877,228.363 336.477,233.421 340.811,238.861 C340.901,238.972 341.107,239.05 341.134,238.818 C342.077,230.546 341.718,221.478 340.781,213.981 C347.767,208.521 354.51,202.744 360.551,196.186 C361.046,195.659 360.552,195.513 360.223,195.557 C353.067,196.427 344.532,197.463 337.52,198.001 C335.007,189.687 332.697,182.939 329.609,175.905 C329.264,175.176 328.985,174.81 328.704,174.81 C328.416,174.812 328.125,175.194 327.761,175.967 Z M271.686,71.894 C259.568,71.894 247.777,72.719 237.038,74.093 C209.857,77.728 182.735,84.878 158.327,96.162 C156.908,96.855 157.541,97.793 158.695,97.584 C276.087,77.054 377.847,97.939 342.337,186.073 C341.882,186.89 342.628,186.874 342.929,186.692 C399.339,157.956 394.057,99.755 332.233,80.193 C313.371,74.224 292.067,71.893 271.699,71.893 C271.691,71.894 271.69,71.894 271.686,71.894 Z M52.873,133.772 C24.745,157.848 10.666,185.361 18.024,209.13 C31.305,252.029 109.377,266.501 192.365,241.448 C240.987,226.767 280.526,201.772 302.264,174.962 C302.671,174.46 302.369,173.86 301.68,174.425 C281.455,191.357 254.715,206.144 223.742,216.244 C143.512,242.409 65.228,227.23 48.929,182.35 C43.48,167.347 45.65,150.919 53.949,134.72 C54.311,134.026 54.142,133.422 53.646,133.422 C53.441,133.423 53.179,133.527 52.873,133.772 Z M107.896,25.436 C102.031,34.592 95.901,43.896 90.74,53.925 C72.555,52.236 54.033,51.741 35.201,52.351 C34.73,52.367 34.639,52.806 35.056,52.996 C51.136,61.236 63.535,68.563 77.764,78.319 C71.629,90.897 63.387,107.041 58.561,124.03 C58.434,124.438 58.725,124.647 59.075,124.414 C73.843,114.603 89.283,106.07 105.244,98.522 C117.617,108.792 129.205,120.021 139.688,132.218 C140.021,132.587 140.269,132.38 140.286,132.015 C141.081,116.233 139.536,100.716 135.746,85.458 C148.454,80.523 161.414,76.063 174.553,71.946 C174.979,71.812 174.939,71.439 174.559,71.297 C158.949,66.088 143.026,61.995 126.809,58.95 C121.96,47.598 115.88,36.435 108.542,25.366 C108.452,25.241 108.353,25.192 108.257,25.192 C108.11,25.192 107.975,25.304 107.896,25.436 Z M165.49,128.503 C165.243,128.503 164.991,128.506 164.741,128.511 C140.977,129.451 138.545,155.095 141.617,172.966 C144.708,191.279 155.968,215.677 178.881,211.179 C199.034,207.222 201.914,184.798 199.349,167.8 C196.48,148.734 186.888,128.505 165.495,128.503 C165.492,128.503 165.493,128.503 165.49,128.503 Z M104.736,213.41 C119.145,214.424 133.576,214.479 148.004,213.838 C146.827,206.95 145.635,200.065 144.415,193.183 C138.461,193.456 132.504,193.545 126.545,193.501 C122.629,172.19 118.992,150.829 115.175,129.501 C106.515,129.033 97.866,128.442 89.222,127.754 C94.194,156.342 99.518,184.867 104.736,213.41 Z M192.987,127.591 C194.052,133.893 195.096,140.198 196.112,146.509 C199.252,146.059 202.39,145.596 205.527,145.138 C208.529,163.704 211.622,182.256 214.847,200.784 C220.868,198.954 226.89,197.122 232.884,195.204 C229.904,177.464 226.96,159.72 224.011,141.975 C226.874,141.426 229.734,140.863 232.585,140.244 L229.689,122.806 C217.491,124.665 205.256,126.258 192.987,127.591 Z M232,122.53 L234.9,139.917 C237.654,139.325 240.406,138.717 243.157,138.104 C245.969,154.999 248.722,171.901 251.659,188.773 C257.062,186.679 262.431,184.503 267.75,182.204 C264.966,166.103 262.369,149.973 259.618,133.866 C262.158,133.127 264.687,132.345 267.217,131.565 C266.321,126.22 265.428,120.873 264.537,115.526 C253.763,118.183 242.917,120.524 232,122.53 Z M289.89,107.376 C287.489,107.376 284.877,108.002 282.066,109.399 C268.015,116.378 268.77,134.434 270.903,147.204 C272.968,159.634 279.905,177.61 295.573,169.327 C309.494,161.969 310.762,146.216 308.389,130.924 C306.761,119.194 300.318,107.377 289.89,107.376 Z" id="Combined-Shape"></path>
            <path d="M164.283,169.271 C163.321,163.959 159.865,145.629 167.209,144.937 C175.045,144.205 177.597,163.728 178.386,168.48 C179.107,172.826 182.187,192.164 175.577,193.282 C175.363,193.317 175.153,193.336 174.946,193.336 C168.063,193.333 165.136,173.985 164.283,169.271" id="Shape"></path>
            <path d="M285.667,139.614 C284.723,134.998 282.498,122.097 287.145,120.551 C291.62,119.062 293.908,133.415 294.569,136.877 C295.325,140.851 297.951,153.847 293.189,155.783 C292.932,155.887 292.681,155.936 292.437,155.936 C288.315,155.937 286.16,141.757 285.667,139.614" id="Shape"></path>
        </g>
    </g>
</svg>